# xmcd CD database file
#
# Track frame offsets:
#	150
#	13151
#	17723
#	45296
#	57096
#	72999
#	85620
#	99292
#	116989
#	134264
#	144802
#	147527
#	159361
#	180887
#	196667
#
# Disc length: 2837 seconds
#
# Revision: 0
# Processed by: cddbd v1.5.1PL2 Copyright (c) Steve Scherf et al.
# Submitted via: CDex 1.50
#
DISCID=ba0b130f
DTITLE=Francois Raulin - First Flush
DYEAR=1993
DGENRE=Jazz
TTITLE0=Cent Tours
TTITLE1=Arriére!
TTITLE2=Zappels
TTITLE3=Zgrabuge
TTITLE4=Masques
TTITLE5=Matin
TTITLE6=Mousse
TTITLE7=Furax Rick Shaw
TTITLE8=Mira Ceti
TTITLE9=Vermeer
TTITLE10=Catimini
TTITLE11=First Flush
TTITLE12=Interlude
TTITLE13=Village Bruegel
TTITLE14=Juliette
EXTD=YEAR: 1993
EXTT0=
EXTT1=
EXTT2=
EXTT3=
EXTT4=
EXTT5=
EXTT6=
EXTT7=
EXTT8=
EXTT9=
EXTT10=
EXTT11=
EXTT12=
EXTT13=
EXTT14=
PLAYORDER=
